<svg width="265" height="531" viewBox="0 0 265 531" fill="none" xmlns="http://www.w3.org/2000/svg">
<path d="M215.859 24.6176L215.859 80.1044C215.859 85.8202 213.673 90.9009 210.256 94.4564L223.355 94.4564C232.75 94.4564 240.401 85.763 240.401 74.9717L240.401 19.4848C240.401 8.69874 232.75 0.000121401 223.355 0.00012058L74.8789 0.0001076C70.4623 0.000107214 66.4679 1.97304 63.4357 5.12766L198.811 5.12767C208.208 5.12767 215.859 13.8263 215.859 24.6176Z" fill="white"/>
<path d="M43.2649 468.616C42.7689 470.844 41.9483 472.864 40.9082 474.671C41.8759 475.457 42.7653 476.352 43.8855 476.914C46.2101 478.018 48.5347 478.57 50.8589 478.57C58.6073 478.57 65.7745 472.625 67.8083 463.484L75.7706 426.758L75.1299 321.641L43.2649 468.616Z" fill="#FFCC99"/>
<path d="M13.628 335.514C13.2053 336.31 12.6407 336.904 12.1525 337.612C15.1471 339.694 18.4976 340.844 21.8999 340.844C24.7319 340.844 27.532 340.027 30.1259 338.611L38.8094 288.283L13.628 335.514Z" fill="#FFCC99"/>
<path d="M179.732 472.796C179.732 473.348 179.829 473.9 179.829 474.337C179.829 478.439 178.588 482.198 176.655 485.405C180.683 488.622 185.842 489.97 191.006 488.476C198.851 486.274 204.372 478.346 204.372 469.21C204.372 468.767 204.275 468.221 204.275 467.669L199.587 394.155L169.272 308.762L179.732 472.796Z" fill="#FFCC99"/>
<path d="M114.065 513.094C113.869 517.722 112.363 521.912 110.017 525.311C112.862 527.258 116.161 528.44 119.722 528.44C129.891 528.44 138.124 519.413 138.608 507.961L140.871 451.147L121.621 323.406L114.065 513.094Z" fill="#FFCC99"/>
<path d="M182.735 184.467L236.778 395.405C237.263 397.274 237.456 399.038 237.456 400.907C237.456 404.588 236.505 408.159 234.805 411.23C239.786 415.42 246.564 416.462 252.605 413.062C258.513 409.762 262 402.937 262 395.78C262 393.906 261.806 392.146 261.322 390.272L207.277 179.34L207.277 94.4567L91.0534 94.4567L91.0534 99.5894L182.735 99.5894L182.735 184.467Z" fill="white"/>
<path d="M66.0653 179.34L5.24121 309.137C1.85133 316.295 2.3354 325.097 6.50016 331.703C8.0655 334.259 10.0325 336.139 12.1524 337.612C12.6406 336.904 13.2053 336.31 13.628 335.514L38.8093 288.283L30.1258 338.611C33.2977 336.878 36.1462 334.202 38.1714 330.386L63.3532 283.156L33.7158 454.9C32.3996 462.662 35.4373 470.215 40.9082 474.671C41.9482 472.865 42.7689 470.845 43.2649 468.617L75.1298 321.641L75.7705 426.758L99.6733 316.513L100.836 507.191C100.9 514.921 104.584 521.595 110.017 525.311C112.363 521.912 113.869 517.722 114.065 513.094L121.62 323.406L140.871 451.147L146.163 318.273L169.408 472.511C170.24 477.977 172.978 482.464 176.655 485.405C178.588 482.198 179.829 478.44 179.829 474.338C179.829 473.9 179.732 473.349 179.732 472.797L169.272 308.762L199.587 394.155L193.815 303.635L229.069 402.937C230.313 406.415 232.36 409.174 234.805 411.23C236.505 408.159 237.456 404.587 237.456 400.907C237.456 399.038 237.263 397.274 236.778 395.405L182.735 184.467L182.735 99.5894L91.0534 99.5893L91.0534 146.31L66.0653 179.34Z" fill="#FFCC99"/>
<path d="M146.163 318.273L169.408 472.51C171.151 483.963 181.127 491.339 191.006 488.476C198.851 486.274 204.372 478.346 204.372 469.21C204.372 468.768 204.275 468.221 204.275 467.669L193.815 303.634" stroke="#231F20" stroke-width="4.125" stroke-miterlimit="10"/>
<path d="M99.6732 316.513L100.836 507.19C100.932 518.971 109.358 528.44 119.722 528.44C129.891 528.44 138.124 519.413 138.608 507.961L146.163 318.273" stroke="#231F20" stroke-width="4.125" stroke-miterlimit="10"/>
<path d="M63.3532 283.155L33.7158 454.9C32.1665 464.035 36.4279 473.171 43.8854 476.914C46.2101 478.018 48.5347 478.57 50.8589 478.57C58.6073 478.57 65.7745 472.625 67.8083 463.484L99.6733 316.513" stroke="#231F20" stroke-width="4.125" stroke-miterlimit="10"/>
<path d="M193.815 303.635L229.069 402.937C232.847 413.505 243.597 418.127 252.605 413.062C258.513 409.762 262 402.937 262 395.78C262 393.906 261.806 392.146 261.322 390.272L207.277 179.34L207.277 94.4567L91.0534 94.4567L91.0534 146.31L66.0653 179.34L5.24119 309.137C1.85131 316.295 2.33539 325.097 6.50015 331.703C10.2775 337.872 16.0886 340.845 21.8998 340.845C28.1955 340.845 34.4907 337.32 38.1714 330.386L63.3532 283.156L109.165 277.429L135.025 220.844" stroke="#231F20" stroke-width="4.125" stroke-miterlimit="10"/>
<rect x="243.485" y="94.6701" width="185.669" height="85.9043" rx="7.33333" transform="rotate(-180 243.485 94.6701)" fill="white" stroke="#231F20" stroke-width="3.66667"/>
<rect x="223.565" y="92.8372" width="163.916" height="82.2377" rx="4.58333" transform="rotate(-180 223.565 92.8372)" fill="#66CC99"/>
</svg>
