<svg width="122" height="164" viewBox="0 0 122 164" fill="none" xmlns="http://www.w3.org/2000/svg">
<rect x="0.282593" y="42.3817" width="121.118" height="121.118" rx="60.5591" fill="#515151"/>
<path d="M41.2724 136.18V121.403C41.2724 119.88 41.9341 118.527 42.9685 117.58H39.003C36.1589 117.58 33.8427 119.896 33.8427 122.77V137.547C33.8427 140.42 36.1589 142.736 39.003 142.736H83.9508C85.2878 142.736 86.4971 142.211 87.415 141.371H46.4331C43.5886 141.371 41.2724 139.054 41.2724 136.18Z" fill="white"/>
<path d="M93.5214 17.9326C93.6715 17.3392 93.92 16.8013 94.2348 16.3202C93.9419 16.1109 93.6726 15.8724 93.3335 15.7227C92.6298 15.4287 91.926 15.2818 91.2225 15.2818C88.8768 15.2818 86.7071 16.8651 86.0914 19.2996L83.681 29.0806L83.875 57.076L93.5214 17.9326Z" fill="#FFCC99"/>
<path d="M102.493 53.381C102.621 53.1689 102.792 53.0109 102.94 52.8223C102.033 52.2678 101.019 51.9614 99.9891 51.9614C99.1317 51.9614 98.2841 52.179 97.4988 52.5561L94.8701 65.9598L102.493 53.381Z" fill="#FFCC99"/>
<path d="M52.2088 16.8189C52.2088 16.6719 52.1796 16.525 52.1796 16.4085C52.1796 15.316 52.5551 14.315 53.1403 13.461C51.9211 12.6042 50.3592 12.2452 48.7961 12.643C46.4211 13.2295 44.7498 15.341 44.7498 17.7741C44.7498 17.8919 44.7791 18.0375 44.7791 18.1845L46.1983 37.7631L55.3755 60.5055L52.2088 16.8189Z" fill="#FFCC99"/>
<path d="M72.0882 6.08707C72.1475 4.85457 72.6034 3.73852 73.3135 2.8332C72.4524 2.31469 71.4538 1.99997 70.3757 1.99997C67.2971 1.99997 64.8048 4.40398 64.6582 7.45405L63.9732 22.5851L69.8009 56.6058L72.0882 6.08707Z" fill="#FFCC99"/>
<path d="M51.2999 93.6086L34.9395 37.4306C34.7927 36.9329 34.7343 36.4629 34.7343 35.9652C34.7343 34.985 35.0221 34.0339 35.5367 33.216C34.029 32.0999 31.977 31.8226 30.1484 32.728C28.3598 33.6069 27.3042 35.4245 27.3042 37.3308C27.3042 37.8299 27.3628 38.2985 27.5095 38.7976L43.8702 94.9742V117.581H79.0544V116.214H51.2999V93.6086Z" fill="white"/>
<path d="M86.619 94.9741L105.032 60.4058C106.058 58.4995 105.912 56.1551 104.651 54.3957C104.177 53.715 103.582 53.2145 102.94 52.8222C102.792 53.0107 102.621 53.1688 102.493 53.3809L94.8701 65.9597L97.4988 52.556C96.5386 53.0177 95.6763 53.7303 95.0632 54.7465L87.44 67.3253L96.412 21.5854C96.8105 19.5183 95.8909 17.5066 94.2347 16.3199C93.9199 16.8009 93.6714 17.3389 93.5213 17.9322L83.8749 57.0757L83.6809 29.0802L76.4449 58.4412L76.0931 7.65907C76.0737 5.60027 74.9582 3.82292 73.3135 2.83303C72.6034 3.73835 72.1475 4.8544 72.0882 6.0869L69.8009 56.6057L63.9732 22.585L62.3713 57.9726L55.3345 16.8952C55.0826 15.4395 54.2536 14.2444 53.1404 13.4611C52.5552 14.3151 52.1796 15.3161 52.1796 16.4086C52.1796 16.5251 52.2089 16.672 52.2089 16.819L55.3755 60.5056L46.1983 37.7632L47.9457 61.8712L37.2732 35.4244C36.8967 34.4982 36.2771 33.7635 35.5368 33.2158C35.0222 34.0338 34.7343 34.9849 34.7343 35.965C34.7343 36.4628 34.7927 36.9328 34.9395 37.4305L51.2999 93.6085V116.214H79.0544V103.771L86.619 94.9741Z" fill="#FFCC99"/>
<path d="M62.3712 57.9727L55.3345 16.8952C54.8067 13.8452 51.7867 11.8807 48.7961 12.6432C46.4211 13.2296 44.7498 15.3411 44.7498 17.7742C44.7498 17.8921 44.7791 18.0376 44.7791 18.1846L47.9457 61.8712" stroke="#231F20" stroke-width="2.09001" stroke-miterlimit="10"/>
<path d="M76.445 58.4415L76.0931 7.65935C76.0638 4.52194 73.513 2.00009 70.3758 2.00009C67.2971 2.00009 64.8048 4.4041 64.6583 7.45416L62.3713 57.9729" stroke="#231F20" stroke-width="2.09001" stroke-miterlimit="10"/>
<path d="M87.44 67.3254L96.4121 21.5855C96.8811 19.1524 95.591 16.7193 93.3334 15.7225C92.6297 15.4285 91.926 15.2816 91.2224 15.2816C88.8767 15.2816 86.707 16.8648 86.0913 19.2993L76.4449 58.4414" stroke="#231F20" stroke-width="2.09001" stroke-miterlimit="10"/>
<path d="M47.9456 61.8713L37.2732 35.4245C36.1297 32.6101 32.8751 31.379 30.1484 32.728C28.3598 33.6069 27.3042 35.4245 27.3042 37.3308C27.3042 37.8299 27.3628 38.2985 27.5095 38.7976L43.8702 94.9742V117.581H79.0544V103.771L86.6189 94.9742L105.032 60.4059C106.058 58.4996 105.912 56.1552 104.651 54.3959C103.507 52.753 101.748 51.9614 99.989 51.9614C98.0832 51.9614 96.1774 52.9 95.0632 54.7467L87.44 67.3254L73.5716 68.8504L65.7431 83.9205" stroke="#231F20" stroke-width="2.09001" stroke-miterlimit="10"/>
<rect x="32.5352" y="117.084" width="56.955" height="23.7598" rx="3.71557" fill="white" stroke="#231F20" stroke-width="1.85779"/>
<rect x="38.9396" y="118.012" width="49.6217" height="21.902" rx="2.32223" fill="#66CC99"/>
</svg>
