<svg width="272" height="534" viewBox="0 0 272 534" fill="none" xmlns="http://www.w3.org/2000/svg">
<path d="M254.147 41.9715C263.296 45.7569 268.575 55.1125 266.581 64.4628L228.458 250.743V250.853L182.828 228.025C176.494 224.798 168.752 227.025 165.233 232.926L161.01 240.05C159.602 242.393 158.781 244.951 158.43 247.399L140.6 247.736C140.6 245.841 140.365 243.84 139.778 241.834L117.726 162.225L89.4565 31.0628C89.1049 29.6149 88.9873 28.1671 88.9873 26.7193C88.9873 17.3637 95.3214 8.90323 104.94 6.00758C117.609 2.22218 130.981 9.46126 134.031 21.7072L181.42 198.858L224.939 55.3336C227.52 46.2044 236.317 40.3025 245.701 40.3025C248.517 40.3025 251.332 40.8607 254.147 41.9715Z" fill="#FFCC99"/>
<path d="M51.6859 238.491V212.662C51.6859 203.086 58.02 194.514 67.5212 191.282L120.757 173.166L117.726 162.225L32.3313 191.282C22.8296 194.514 16.4955 203.086 16.4955 212.662V238.491L54.8529 352.175V438.023H90.0428V352.175L51.6859 238.491Z" fill="#F3F3F3"/>
<path d="M225.76 352.175L256.258 297.842C264.234 283.7 258.604 265.995 243.59 258.424L228.458 250.853L182.828 228.025C176.494 224.798 168.752 227.025 165.233 232.926L161.01 240.05C159.602 242.393 158.781 244.951 158.43 247.399L140.6 247.736C140.6 245.841 140.365 243.84 139.778 241.835L120.757 173.166L67.5211 191.282C58.0199 194.514 51.6858 203.085 51.6858 212.662V238.491L90.0427 352.175V438.023H195.614V385.58L225.76 352.175Z" fill="#FFCC99"/>
<path d="M49.8089 513.957V457.618C49.8089 446.815 59.0755 438.022 70.4536 438.022H54.8529H35.2638C23.8856 438.022 14.6185 446.815 14.6185 457.618V513.957C14.6185 524.755 23.8856 533.442 35.2638 533.442H70.4536C59.0755 533.442 49.8089 524.755 49.8089 513.957Z" fill="#F3F3F3"/>
<path d="M181.42 198.858L134.031 21.7073C130.981 9.46134 117.609 2.22225 104.94 6.00766C95.3214 8.90331 88.9873 17.3638 88.9873 26.7194C88.9873 28.1672 89.1049 29.615 89.4565 31.0628L117.726 162.225" stroke="#231F20" stroke-width="9" stroke-miterlimit="10"/>
<path d="M228.458 250.743L266.581 64.4629C268.575 55.1126 263.297 45.757 254.147 41.9716C251.332 40.8607 248.517 40.3026 245.701 40.3026C236.317 40.3026 227.52 46.2045 224.939 55.3337L181.421 198.858" stroke="#231F20" stroke-width="9" stroke-miterlimit="10"/>
<path d="M201.831 291.713L184.001 278.799L166.64 266.105C160.424 261.651 157.491 254.418 158.43 247.4C158.781 244.951 159.602 242.393 161.01 240.05L165.233 232.927C168.752 227.025 176.494 224.798 182.828 228.025L228.458 250.853L243.59 258.424C258.604 265.995 264.234 283.7 256.258 297.842L225.76 352.175L195.614 385.58V438.023H54.8529V352.175L16.4955 238.491V212.662C16.4955 203.086 22.8296 194.514 32.3313 191.282L117.726 162.225L139.778 241.835C140.365 243.84 140.6 245.841 140.6 247.736C140.6 258.756 132.389 268.669 120.424 270.67L87.3455 276.351C75.7328 278.357 64.3541 272.007 60.6008 261.541L49.4567 231.368" stroke="#231F20" stroke-width="9" stroke-miterlimit="10"/>
<path d="M184.001 278.799L133.327 334.917" stroke="#231F20" stroke-width="9" stroke-miterlimit="10"/>
<rect x="4" y="438.344" width="228.426" height="91.1726" rx="16" fill="#F3F3F3" stroke="#231F20" stroke-width="8"/>
<rect x="29.9058" y="442.345" width="198.52" height="83.1726" rx="10" fill="#66CC99"/>
</svg>
