<svg width="139" height="159" viewBox="0 0 139 159" fill="none" xmlns="http://www.w3.org/2000/svg">
<rect x="0.700302" y="28.9433" width="137.582" height="129.557" rx="64.7783" fill="#515151"/>
<path d="M60.2668 22.1539L93.1892 3.21033C93.5287 3.01531 93.8779 2.85831 94.2271 2.71123C91.7007 1.63364 88.871 1.78734 86.385 3.21033L53.4626 22.1539C50.2851 24.0066 48.2554 27.8525 48.2554 32.0455V101.743H55.0596V32.0455C55.0596 27.8525 57.0894 24.0066 60.2668 22.1539Z" fill="white"/>
<path d="M121.22 52.493V42.5668C121.22 39.3869 119.779 36.4153 117.484 34.7725L108.951 28.7599V19.1129C108.951 15.8983 107.627 12.9268 105.362 11.1451L96.4182 4.01359C95.7282 3.46323 94.9909 3.03681 94.2271 2.71123C93.8779 2.85831 93.5287 3.01531 93.1892 3.21033L60.2668 22.1539C57.0894 24.0066 55.0596 27.8525 55.0596 32.0455V101.743H89.7683H89.8282V80.8059H96.6324H96.6533L117.367 61.7913C119.779 59.5535 121.22 56.129 121.22 52.493Z" fill="#FFCC99"/>
<path d="M48.1162 125.545V107.894C48.1162 104.503 50.4395 101.743 53.2942 101.743H48.2553H46.4899C43.6352 101.743 41.3105 104.503 41.3105 107.894V125.545C41.3105 128.935 43.6352 131.697 46.4899 131.697H53.2942C50.4395 131.697 48.1162 128.935 48.1162 125.545Z" fill="white"/>
<path d="M89.7684 101.743H48.2554V32.0455C48.2554 27.8525 50.2851 24.0066 53.4626 22.1539L86.385 3.21036C89.6209 1.35765 93.4466 1.63699 96.4182 4.01361L105.362 11.1451C107.627 12.9268 108.951 15.8984 108.951 19.1129V28.7599V43.2312C108.951 47.0754 107.157 50.5709 104.273 52.2832L84.9437 63.958C82.2365 65.6008 79.0298 65.4604 76.4408 63.644L64.3778 55.1143C61.9655 53.4367 60.4936 50.361 60.4936 47.0407C60.4936 44.6641 61.3186 42.532 62.6124 40.9587C63.9076 39.4216 65.7314 38.4779 67.7027 38.4779H72.999" stroke="#231F20" stroke-width="2.09001" stroke-miterlimit="10"/>
<path d="M69.2316 80.8062H96.6533L117.367 61.7916C119.779 59.5538 121.22 56.1293 121.22 52.4933V42.5671C121.22 39.3872 119.779 36.4156 117.484 34.7728L108.951 28.7602" stroke="#231F20" stroke-width="2.09001" stroke-miterlimit="10"/>
<path d="M89.8282 101.743V80.8059" stroke="#231F20" stroke-width="2.09001" stroke-miterlimit="10"/>
<path d="M72.999 28.7603V47.8096" stroke="#231F20" stroke-width="2.09001" stroke-miterlimit="10"/>
<rect x="39.0081" y="101.429" width="57.1454" height="27.9673" rx="3.71557" fill="white" stroke="#231F20" stroke-width="1.85779"/>
<rect x="45.4313" y="102.358" width="49.7932" height="26.1095" rx="2.32223" fill="#66CC99"/>
</svg>
