<svg width="123" height="164" viewBox="0 0 123 164" fill="none" xmlns="http://www.w3.org/2000/svg">
<rect x="0.400818" y="43.2515" width="121.899" height="120.249" rx="60.1243" fill="#515151"/>
<path d="M92.9503 11.4667C95.252 12.4563 96.58 14.9022 96.0782 17.3468L86.4878 66.0479V66.0768L75.0086 60.1086C73.4153 59.2649 71.4677 59.8471 70.5823 61.3901L69.5199 63.2524C69.1658 63.8649 68.9593 64.5339 68.8708 65.1739L64.3854 65.262C64.3854 64.7665 64.3264 64.2434 64.1787 63.719L58.6311 42.9059L51.5194 8.61468C51.4309 8.23616 51.4013 7.85764 51.4013 7.47911C51.4013 5.03318 52.9948 2.82127 55.4146 2.06423C58.6016 1.07457 61.9656 2.96716 62.7328 6.16875L74.6546 52.4831L85.6025 14.9601C86.2517 12.5733 88.4649 11.0303 90.8256 11.0303C91.5339 11.0303 92.242 11.1762 92.9503 11.4667Z" fill="#FFCC99"/>
<path d="M42.0174 62.8446V56.0918C42.0174 53.588 43.6108 51.3472 46.001 50.5021L59.3935 45.7657L58.631 42.9055L37.1484 50.5021C34.758 51.3472 33.1646 53.588 33.1646 56.0918V62.8446L42.8141 92.566V115.01H51.6668V92.566L42.0174 62.8446Z" fill="white"/>
<path d="M85.8089 92.566L93.4813 78.3612C95.4878 74.664 94.0714 70.0351 90.2943 68.0557L86.4877 66.0764L75.0084 60.1082C73.4151 59.2645 71.4675 59.8467 70.5822 61.3897L69.5198 63.252C69.1657 63.8645 68.9591 64.5335 68.8707 65.1735L64.3853 65.2616C64.3853 64.7661 64.3262 64.243 64.1786 63.7186L59.3935 45.7657L46.001 50.502C43.6108 51.3472 42.0173 53.588 42.0173 56.0918V62.8446L51.6667 92.566V115.01H78.2251V101.299L85.8089 92.566Z" fill="#FFCC99"/>
<path d="M41.5452 134.863V120.134C41.5452 117.309 43.8764 115.011 46.7387 115.011H42.8141H37.8861C35.0237 115.011 32.6924 117.309 32.6924 120.134V134.863C32.6924 137.686 35.0237 139.957 37.8861 139.957H46.7387C43.8764 139.957 41.5452 137.686 41.5452 134.863Z" fill="white"/>
<path d="M74.6545 52.483L62.7326 6.16863C61.9655 2.96704 58.6015 1.07445 55.4144 2.06411C52.9947 2.82115 51.4012 5.03306 51.4012 7.47899C51.4012 7.85751 51.4308 8.23603 51.5192 8.61455L58.6309 42.9058" stroke="#231F20" stroke-width="2.09001" stroke-miterlimit="10"/>
<path d="M86.4877 66.0477L96.0781 17.3466C96.5798 14.902 95.2519 12.4561 92.9502 11.4665C92.2419 11.176 91.5338 11.0301 90.8255 11.0301C88.4647 11.0301 86.2516 12.5731 85.6024 14.9598L74.6545 52.4829" stroke="#231F20" stroke-width="2.09001" stroke-miterlimit="10"/>
<path d="M79.7891 76.759L75.3036 73.3826L70.9363 70.064C69.3724 68.8995 68.6347 67.0083 68.8708 65.1735C68.9592 64.5335 69.1657 63.8645 69.5199 63.252L70.5823 61.3897C71.4676 59.8467 73.4152 59.2645 75.0085 60.1082L86.4877 66.0765L90.2943 68.0558C94.0715 70.0351 95.4879 74.6641 93.4814 78.3612L85.8089 92.566L78.2252 101.3V115.01H42.8141V92.566L33.1646 62.8446V56.0918C33.1646 53.588 34.758 51.3472 37.1484 50.5021L58.631 42.9055L64.1787 63.7186C64.3263 64.243 64.3853 64.7661 64.3853 65.2616C64.3853 68.1425 62.3197 70.7343 59.3097 71.2574L50.9882 72.7425C48.0668 73.267 45.2043 71.607 44.2601 68.8706L41.4566 60.9823" stroke="#231F20" stroke-width="2.09001" stroke-miterlimit="10"/>
<path d="M75.3036 73.3827L62.5557 88.0541" stroke="#231F20" stroke-width="2.09001" stroke-miterlimit="10"/>
<rect x="30.0984" y="115.211" width="57.3101" height="23.6025" rx="3.71557" fill="white" stroke="#231F20" stroke-width="1.85779"/>
<rect x="36.538" y="116.14" width="49.9415" height="21.7447" rx="2.32223" fill="#66CC99"/>
</svg>
